#Comment line ignore any data following # character 
#Hierarchical Translation and Rotation (.htr) file 
[Header]	
#Header keywords are followed by a single value 
FileType HTR		#Single word string
DataType HTRS		#Translation followed by rotation and scale data
FileVersion 1		#integer
NumSegments 64		#integer
NumFrames 3		#integer
DataFrameRate 30		#integer, data frame rate in this file
EulerRotationOrder ZYX
CalibrationUnits mm
RotationUnits Degrees
GlobalAxisofGravity Y
BoneLengthAxis Y
ScaleFactor 1.00
[SegmentNames&Hierarchy]
#CHILD	PARENT
Pinger_Root GLOBAL
Pelvis Pinger_Root
L_Hip Pelvis
R_Hip Pelvis
Rear_Leg01 Pelvis
Spine1 Pelvis
L_Leg01 L_Hip
L_Leg02 L_Leg01
L_Leg03 L_Leg02
L_Foot L_Leg03
L_Toe1_01 L_Foot
L_Toe2_01 L_Foot
L_Toe3_01 L_Foot
planeAlignerLeft L_Foot
L_Toe1_02 L_Toe1_01
L_Toe1_03 L_Toe1_02
L_Toe2_02 L_Toe2_01
L_Toe2_03 L_Toe2_02
L_Toe3_02 L_Toe3_01
L_Toe3_03 L_Toe3_02
planeLockWeightLeft planeAlignerLeft
R_Leg01 R_Hip
R_Leg02 R_Leg01
R_Leg03 R_Leg02
R_Foot R_Leg03
planeAlignerRight R_Foot
R_Toe1_01 R_Foot
R_Toe2_01 R_Foot
R_Toe3_01 R_Foot
planeLockWeightRight planeAlignerRight
R_Toe1_02 R_Toe1_01
R_Toe1_03 R_Toe1_02
R_Toe2_02 R_Toe2_01
R_Toe2_03 R_Toe2_02
R_Toe3_02 R_Toe3_01
R_Toe3_03 R_Toe3_02
Rear_Leg02 Rear_Leg01
Rear_Leg03 Rear_Leg02
Rear_Leg04 Rear_Leg03
Rear_Foot Rear_Leg04
planeAlignerCenter Rear_Foot
Rear_Toe1_01 Rear_Foot
Rear_Toe2_01 Rear_Foot
Rear_Toe3_01 Rear_Foot
planeLockWeightCenter planeAlignerCenter
Rear_Toe1_02 Rear_Toe1_01
Rear_Toe1_03 Rear_Toe1_02
Rear_Toe2_02 Rear_Toe2_01
Rear_Toe2_03 Rear_Toe2_02
Rear_Toe3_02 Rear_Toe3_01
Rear_Toe3_03 Rear_Toe3_02
Back_Bone Spine1
Head Spine1
Motor_Bone Back_Bone
Ping_Mechanism Back_Bone
BN_LookIK Head
bottomMouth Head
L_Mouth01 Head
L_mouthFront Head
mouthGun Head
R_Mouth01 Head
R_mouthFront Head
TopMouth Head
weapon_bone Head
[BasePosition]
#SegmentName Tx, Ty, Tz, Rx, Ry, Rz, BoneLength
Pinger_Root 0.000000 0.000000 0.000000 -90.000000 0.000000 0.000000 10.000000 
Pelvis 0.000000 0.000000 0.000000 0.000000 0.000000 0.000000 10.000000 
L_Hip 0.000000 0.000000 0.000000 0.000000 0.000000 0.000000 10.000000 
R_Hip 0.000000 0.000000 0.000000 0.000000 0.000000 0.000000 10.000000 
Rear_Leg01 0.000000 0.000000 0.000000 0.000000 0.000000 0.000000 10.000000 
Spine1 0.000000 0.000000 0.000000 0.000000 0.000000 0.000000 10.000000 
L_Leg01 0.000000 0.000000 0.000000 0.000000 0.000000 0.000000 10.000000 
L_Leg02 0.000000 0.000000 0.000000 0.000000 0.000000 0.000000 10.000000 
L_Leg03 0.000000 0.000000 0.000000 0.000000 0.000000 0.000000 10.000000 
L_Foot 0.000000 0.000000 0.000000 0.000000 0.000000 0.000000 10.000000 
L_Toe1_01 0.000000 0.000000 0.000000 0.000000 0.000000 0.000000 10.000000 
L_Toe2_01 0.000000 0.000000 0.000000 0.000000 0.000000 0.000000 10.000000 
L_Toe3_01 0.000000 0.000000 0.000000 0.000000 0.000000 0.000000 10.000000 
planeAlignerLeft 0.000000 0.000000 0.000000 0.000000 0.000000 0.000000 10.000000 
L_Toe1_02 0.000000 0.000000 0.000000 0.000000 0.000000 0.000000 10.000000 
L_Toe1_03 0.000000 0.000000 0.000000 0.000000 0.000000 0.000000 10.000000 
L_Toe2_02 0.000000 0.000000 0.000000 0.000000 0.000000 0.000000 10.000000 
L_Toe2_03 0.000000 0.000000 0.000000 0.000000 0.000000 0.000000 10.000000 
L_Toe3_02 0.000000 0.000000 0.000000 0.000000 0.000000 0.000000 10.000000 
L_Toe3_03 0.000000 0.000000 0.000000 0.000000 0.000000 0.000000 10.000000 
planeLockWeightLeft 0.000000 0.000000 0.000000 0.000000 0.000000 0.000000 10.000000 
R_Leg01 0.000000 0.000000 0.000000 0.000000 0.000000 0.000000 10.000000 
R_Leg02 0.000000 0.000000 0.000000 0.000000 0.000000 0.000000 10.000000 
R_Leg03 0.000000 0.000000 0.000000 0.000000 0.000000 0.000000 10.000000 
R_Foot 0.000000 0.000000 0.000000 0.000000 0.000000 0.000000 10.000000 
planeAlignerRight 0.000000 0.000000 0.000000 0.000000 0.000000 0.000000 10.000000 
R_Toe1_01 0.000000 0.000000 0.000000 0.000000 0.000000 0.000000 10.000000 
R_Toe2_01 0.000000 0.000000 0.000000 0.000000 0.000000 0.000000 10.000000 
R_Toe3_01 0.000000 0.000000 0.000000 0.000000 0.000000 0.000000 10.000000 
planeLockWeightRight 0.000000 0.000000 0.000000 0.000000 0.000000 0.000000 10.000000 
R_Toe1_02 0.000000 0.000000 0.000000 0.000000 0.000000 0.000000 10.000000 
R_Toe1_03 0.000000 0.000000 0.000000 0.000000 0.000000 0.000000 10.000000 
R_Toe2_02 0.000000 0.000000 0.000000 0.000000 0.000000 0.000000 10.000000 
R_Toe2_03 0.000000 0.000000 0.000000 0.000000 0.000000 0.000000 10.000000 
R_Toe3_02 0.000000 0.000000 0.000000 0.000000 0.000000 0.000000 10.000000 
R_Toe3_03 0.000000 0.000000 0.000000 0.000000 0.000000 0.000000 10.000000 
Rear_Leg02 0.000000 0.000000 0.000000 0.000000 0.000000 0.000000 10.000000 
Rear_Leg03 0.000000 0.000000 0.000000 0.000000 0.000000 0.000000 10.000000 
Rear_Leg04 0.000000 0.000000 0.000000 0.000000 0.000000 0.000000 10.000000 
Rear_Foot 0.000000 0.000000 0.000000 0.000000 0.000000 0.000000 10.000000 
planeAlignerCenter 0.000000 0.000000 0.000000 0.000000 0.000000 0.000000 10.000000 
Rear_Toe1_01 0.000000 0.000000 0.000000 0.000000 0.000000 0.000000 10.000000 
Rear_Toe2_01 0.000000 0.000000 0.000000 0.000000 0.000000 0.000000 10.000000 
Rear_Toe3_01 0.000000 0.000000 0.000000 0.000000 0.000000 0.000000 10.000000 
planeLockWeightCenter 0.000000 0.000000 0.000000 0.000000 0.000000 0.000000 10.000000 
Rear_Toe1_02 0.000000 0.000000 0.000000 0.000000 0.000000 0.000000 10.000000 
Rear_Toe1_03 0.000000 0.000000 0.000000 0.000000 0.000000 0.000000 10.000000 
Rear_Toe2_02 0.000000 0.000000 0.000000 0.000000 0.000000 0.000000 10.000000 
Rear_Toe2_03 0.000000 0.000000 0.000000 0.000000 0.000000 0.000000 10.000000 
Rear_Toe3_02 0.000000 0.000000 0.000000 0.000000 0.000000 0.000000 10.000000 
Rear_Toe3_03 0.000000 0.000000 0.000000 0.000000 0.000000 0.000000 10.000000 
Back_Bone 0.000000 0.000000 0.000000 0.000000 0.000000 0.000000 10.000000 
Head 0.000000 0.000000 0.000000 0.000000 0.000000 0.000000 10.000000 
Motor_Bone 0.000000 0.000000 0.000000 0.000000 0.000000 0.000000 10.000000 
Ping_Mechanism 0.000000 0.000000 0.000000 0.000000 0.000000 0.000000 10.000000 
BN_LookIK 0.000000 0.000000 0.000000 0.000000 0.000000 0.000000 10.000000 
bottomMouth 0.000000 0.000000 0.000000 0.000000 0.000000 0.000000 10.000000 
L_Mouth01 0.000000 0.000000 0.000000 0.000000 0.000000 0.000000 10.000000 
L_mouthFront 0.000000 0.000000 0.000000 0.000000 0.000000 0.000000 10.000000 
mouthGun 0.000000 0.000000 0.000000 0.000000 0.000000 0.000000 10.000000 
R_Mouth01 0.000000 0.000000 0.000000 0.000000 0.000000 0.000000 10.000000 
R_mouthFront 0.000000 0.000000 0.000000 0.000000 0.000000 0.000000 10.000000 
TopMouth 0.000000 0.000000 0.000000 0.000000 0.000000 0.000000 10.000000 
weapon_bone 0.000000 0.000000 0.000000 0.000000 0.000000 0.000000 10.000000 
#Beginning of Data. Separated by tabs
#Fr	Tx	Ty	Tz	Rx	Ry	Rz	SF
[Pinger_Root]
277 0.000000 0.000000 0.000000 -0.000075 -0.000000 -0.000020 0.000000
278 0.000000 0.000000 0.000000 -0.000075 -0.000000 -0.000020 0.000000
279 0.000000 0.000000 0.000000 -0.000075 -0.000000 -0.000020 0.000000
[Pelvis]
277 -1268.904785 24323.458984 -4620.032715 -111.382019 -73.503273 123.128426 24790.835938
278 -1232.638428 24354.589844 -4621.683105 -110.891693 -72.525261 119.981300 24819.859375
279 -1197.895874 24382.550781 -4626.127441 -110.114479 -71.605011 117.052834 24846.423828
[L_Hip]
277 5.766392 125.831482 872.656799 -178.253311 -81.787758 87.381340 881.701050
278 5.766392 125.831482 872.656799 -178.253311 -81.787758 87.381340 881.701050
279 5.766392 125.831482 872.656799 -178.253357 -81.787712 87.381348 881.701050
[R_Hip]
277 5.765438 125.836372 -872.654907 -1.746690 81.787712 87.381248 881.699829
278 5.765438 125.836372 -872.654907 -1.746690 81.787712 87.381248 881.699829
279 5.765438 125.836372 -872.654907 -1.746641 81.787712 87.381302 881.699829
[Rear_Leg01]
277 -192.298416 -925.602966 -0.001907 166.612122 -16.834406 161.130905 945.367432
278 -192.298416 -925.602966 -0.001907 163.989487 -17.185877 160.848618 945.367432
279 -192.298416 -925.602966 -0.001907 161.640045 -17.510700 161.184692 945.367432
[Spine1]
277 290.604584 5.007505 0.000477 -9.943943 11.679615 14.972156 290.647736
278 290.604584 5.007505 0.000477 -7.587258 10.412019 13.139075 290.647736
279 290.604584 5.007505 0.000477 -5.706446 9.364467 11.414623 290.647736
[L_Leg01]
277 761.932007 -0.002384 -0.069261 9.205221 -75.321480 8.055155 761.932068
278 761.932007 -0.002384 -0.069261 12.078030 -71.910202 4.419357 761.932068
279 761.932007 -0.002384 -0.069261 21.175911 -69.824364 -4.146362 761.932068
[L_Leg02]
277 1441.140503 -0.000954 -0.000715 5.569256 -0.710066 -162.483185 1441.140503
278 1441.140503 -0.000954 -0.000715 4.373386 -0.670225 -153.133255 1441.140503
279 1441.140503 -0.000954 -0.000715 2.796749 -0.477130 -140.019638 1441.140503
[L_Leg03]
277 1686.963989 -0.000715 -0.000954 -0.014037 0.006656 114.723518 1686.963989
278 1686.963989 -0.000715 -0.000954 -0.011408 0.002311 112.905289 1686.963989
279 1686.963989 -0.000715 -0.000954 -0.004566 0.000861 111.355461 1686.963989
[L_Foot]
277 3041.570068 -30.715107 11.297464 5.159461 11.675080 80.937569 3041.746094
278 3041.570068 -30.715107 11.297464 -0.716370 12.244753 67.215919 3041.746094
279 3041.570068 -30.715107 11.297464 -11.301219 11.704245 45.732647 3041.746094
[L_Toe1_01]
277 -188.216690 -224.732346 -21.137953 81.109482 -6.217726 -137.192734 293.899567
278 -188.216690 -224.732346 -21.137953 81.379601 -6.991343 -150.895370 293.899567
279 -188.216690 -224.732346 -21.137953 80.142242 -5.218051 -149.129120 293.899567
[L_Toe2_01]
277 200.746536 -219.926590 148.838394 -77.792366 -5.184955 -71.545570 332.896027
278 200.746536 -219.926590 148.838394 -78.670509 -9.499265 -61.579414 332.896027
279 200.746536 -219.926590 148.838394 -79.944160 -13.086501 -51.938770 332.896027
[L_Toe3_01]
277 188.832520 -219.859131 -191.078659 -94.432762 6.390497 -72.903488 347.140900
278 188.832520 -219.859131 -191.078659 -94.713844 14.824333 -65.240311 347.140900
279 188.832520 -219.859131 -191.078659 -95.643219 22.577709 -59.718285 347.140900
[planeAlignerLeft]
277 0.812531 -811.448792 -0.314951 0.000000 -90.000000 -90.001900 811.449280
278 0.812531 -811.448792 -0.314951 0.000000 -90.000000 -90.001900 811.449280
279 0.812531 -811.448792 -0.314951 0.000000 -90.000000 -90.001900 811.449280
[L_Toe1_02]
277 413.761139 0.000477 0.000000 0.001484 -14.528245 0.001484 413.761139
278 413.761139 0.000477 0.000000 0.001436 -19.659969 0.001436 413.761139
279 413.761139 0.000477 0.000000 0.001385 -25.886045 0.001385 413.761139
[L_Toe1_03]
277 464.317322 0.000358 -0.000089 -179.998001 72.486282 -179.994461 464.317322
278 464.317322 0.000358 -0.000089 -179.961426 88.367088 -179.957932 464.317322
279 464.317322 0.000358 -0.000089 0.003308 48.445660 0.003308 464.317322
[L_Toe2_02]
277 342.235809 -0.000477 0.000238 0.001183 -75.847939 0.001183 342.235809
278 342.235809 -0.000477 0.000238 0.001190 -70.731110 0.001190 342.235809
279 342.235809 -0.000477 0.000238 -0.002429 -56.061810 -0.002429 342.235809
[L_Toe2_03]
277 420.210846 -0.000715 0.000000 -179.989944 84.424309 -179.986435 420.210846
278 420.210846 -0.000715 0.000000 0.015466 81.296249 0.015466 420.210846
279 420.210846 -0.000715 0.000000 -0.000092 55.237980 -0.003756 420.210846
[L_Toe3_02]
277 329.270111 0.000954 0.000000 0.001178 -80.001663 0.001178 329.270111
278 329.270111 0.000954 0.000000 0.001179 -79.331825 0.001179 329.270111
279 329.270111 0.000954 0.000000 0.001182 -76.583534 0.001182 329.270111
[L_Toe3_03]
277 439.137451 -0.001907 0.000954 -179.994843 80.465309 -179.991333 439.137451
278 439.137451 -0.001907 0.000954 -179.992523 82.857849 -179.989029 439.137451
279 439.137451 -0.001907 0.000954 -0.049516 88.620872 -0.046019 439.137451
[planeLockWeightLeft]
277 -0.000954 0.000238 -0.000305 -0.011826 -0.004376 0.005620 0.001029
278 -0.000954 0.000238 -0.000305 -0.011826 -0.004376 0.005620 0.001029
279 -0.000954 0.000238 -0.000305 -0.011826 -0.004376 0.005620 0.001029
[R_Leg01]
277 761.455627 -0.001907 -0.000358 118.614487 -33.740631 62.444294 761.455688
278 761.455627 -0.001907 -0.000358 116.204781 -35.014908 64.587616 761.455688
279 761.455627 -0.001907 -0.000358 114.037048 -35.545467 66.623657 761.455688
[R_Leg02]
277 1441.140625 0.000000 -0.000238 -0.454649 -0.032277 -127.753838 1441.140625
278 1441.140625 0.000000 -0.000238 -0.514429 -0.050489 -127.273872 1441.140625
279 1441.140625 0.000000 -0.000238 -0.565837 -0.070310 -126.323029 1441.140625
[R_Leg03]
277 1686.963989 0.000954 0.001431 0.041557 -0.020245 121.606560 1686.963989
278 1686.963989 0.000954 0.001431 0.049348 -0.026052 123.990639 1686.963989
279 1686.963989 0.000954 0.001431 0.057336 -0.030436 126.056580 1686.963989
[R_Foot]
277 3041.560059 -30.531288 -11.204481 20.717165 -22.963165 58.983246 3041.734131
278 3041.560059 -30.531288 -11.204481 19.619225 -22.930704 58.051533 3041.734131
279 3041.560059 -30.531288 -11.204481 18.521288 -22.914684 57.119686 3041.734131
[planeAlignerRight]
277 -0.635147 -812.270569 -0.364304 0.000000 -89.960434 -90.005180 812.270874
278 -0.635147 -812.270569 -0.364304 0.000000 -89.960434 -90.005180 812.270874
279 -0.635147 -812.270569 -0.364304 0.000000 -89.960434 -90.005180 812.270874
[R_Toe1_01]
277 -188.383347 -224.864899 21.052242 95.009102 0.228610 -146.771530 294.101532
278 -188.383347 -224.864899 21.052242 95.016159 -0.360732 -145.483490 294.101532
279 -188.383347 -224.864899 21.052242 95.017021 -0.882740 -145.138748 294.101532
[R_Toe2_01]
277 200.637817 -220.002121 -148.787384 -92.830696 5.651039 -54.586544 332.857574
278 200.637817 -220.002121 -148.787384 -92.760674 4.963089 -55.298550 332.857574
279 200.637817 -220.002121 -148.787384 -92.581985 4.372169 -55.424690 332.857574
[R_Toe3_01]
277 188.606735 -220.092957 191.126343 -63.906235 -31.561737 -71.496727 347.192566
278 188.606735 -220.092957 191.126343 -63.592991 -31.396723 -72.391228 347.192566
279 188.606735 -220.092957 191.126343 -63.400482 -31.542545 -72.629684 347.192566
[planeLockWeightRight]
277 -0.000477 0.000000 0.000000 -0.011823 -0.004379 -0.000027 0.000477
278 -0.000477 0.000000 0.000000 -0.011823 -0.004379 -0.000027 0.000477
279 -0.000477 0.000000 0.000000 -0.011823 -0.004379 -0.000027 0.000477
[R_Toe1_02]
277 413.762085 0.000477 -0.000119 0.001387 -25.571602 0.001387 413.762085
278 413.762085 0.000477 -0.000119 0.001389 -25.272396 0.001389 413.762085
279 413.762085 0.000477 -0.000119 0.001389 -25.272404 0.001389 413.762085
[R_Toe1_03]
277 464.317810 0.000000 0.001088 0.003062 44.927986 0.003062 464.317810
278 464.317810 0.000000 0.001088 0.002920 42.604267 0.002920 464.317810
279 464.317810 0.000000 0.001088 0.000480 42.593712 -0.003339 464.317810
[R_Toe2_02]
277 342.234741 -0.000954 0.000238 0.001205 -63.979153 0.001205 342.234741
278 342.234741 -0.000954 0.000238 0.001208 -62.590748 0.001208 342.234741
279 342.234741 -0.000954 0.000238 0.001210 -61.764904 0.001210 342.234741
[R_Toe2_03]
277 420.210846 0.000715 -0.000268 -0.004728 67.492599 -0.001162 420.210846
278 420.210846 0.000715 -0.000268 -0.004449 65.024002 -0.000867 420.210846
279 420.210846 0.000715 -0.000268 -0.004319 63.674282 -0.000728 420.210846
[R_Toe3_02]
277 329.270355 -0.000477 -0.000954 -0.000584 -69.835457 -0.000584 329.270355
278 329.270355 -0.000477 -0.000954 -0.002368 -67.679062 -0.002368 329.270355
279 329.270355 -0.000477 -0.000954 -0.002375 -66.096558 -0.002375 329.270355
[R_Toe3_03]
277 439.137939 0.000238 0.001431 0.007910 72.933983 0.007910 439.137939
278 439.137939 0.000238 0.001431 0.006463 69.076157 0.006463 439.137939
279 439.137939 0.000238 0.001431 0.005724 66.336639 0.005724 439.137939
[Rear_Leg02]
277 1162.777710 -0.029802 0.005960 8.719902 -5.251511 -169.462204 1162.777710
278 1162.777710 -0.029802 0.005960 9.421744 -5.969654 -168.468018 1162.777710
279 1162.777710 -0.029802 0.005960 10.111920 -6.699764 -167.481354 1162.777710
[Rear_Leg03]
277 607.192505 -0.013351 -0.073195 0.010008 -0.006001 78.248665 607.192505
278 607.192505 -0.013351 -0.073195 0.010022 -0.005976 77.970978 607.192505
279 607.192505 -0.013351 -0.073195 0.010037 -0.005952 77.693283 607.192505
[Rear_Leg04]
277 995.874512 -0.020504 -0.011921 -0.043714 -0.015947 94.073334 995.874573
278 995.874512 -0.020504 -0.011921 -0.043578 -0.016318 93.099052 995.874573
279 995.874512 -0.020504 -0.011921 -0.043436 -0.016688 92.124733 995.874573
[Rear_Foot]
277 3096.176270 -0.067472 -0.041425 -140.725769 74.239113 29.304552 3096.176270
278 3096.176270 -0.067472 -0.041425 -138.852203 73.384048 31.362631 3096.176270
279 3096.176270 -0.067472 -0.041425 -138.320084 72.219032 32.359154 3096.176270
[planeAlignerCenter]
277 0.350077 0.966311 -838.790894 0.000009 0.000003 -179.999985 838.791565
278 0.350077 0.966311 -838.790894 0.000009 0.000003 -179.999985 838.791565
279 0.350077 0.966311 -838.790894 0.000009 0.000003 -179.999985 838.791565
[Rear_Toe1_01]
277 0.653352 83.966492 -371.173737 0.050504 22.472988 89.901169 380.553192
278 0.653352 83.966492 -371.173737 0.054059 22.401596 90.026833 380.553192
279 0.653352 83.966492 -371.173737 0.473981 21.464998 91.079453 380.553192
[Rear_Toe2_01]
277 178.200760 -294.826019 -362.060547 -4.068716 47.058838 -71.608208 499.765686
278 178.200760 -294.826019 -362.060547 -4.047775 46.977318 -71.432495 499.765686
279 178.200760 -294.826019 -362.060547 -5.532188 47.013313 -74.258911 499.765686
[Rear_Toe3_01]
277 -153.359680 -308.780914 -362.060852 -2.017220 47.093693 -113.369843 499.952881
278 -153.359680 -308.780914 -362.060852 -1.986815 47.016941 -113.195892 499.952881
279 -153.359680 -308.780914 -362.060852 -1.920089 47.045223 -113.296112 499.952881
[planeLockWeightCenter]
277 -0.000062 0.000238 0.000000 -0.011814 -0.004373 -0.000015 0.000246
278 -0.000062 0.000238 0.000000 -0.011814 -0.004373 -0.000015 0.000246
279 -0.000062 0.000238 0.000000 -0.011814 -0.004373 -0.000015 0.000246
[Rear_Toe1_02]
277 379.707825 0.194073 0.000477 -0.002077 -33.556591 0.002360 379.707855
278 379.707825 0.194073 0.000477 -0.003213 -33.549358 0.002702 379.707855
279 379.707825 0.194073 0.000477 -0.004349 -33.542099 0.003044 379.707855
[Rear_Toe1_03]
277 500.129700 0.165701 0.000119 0.007005 70.709450 0.007005 500.129761
278 500.129700 0.165701 0.000119 0.007047 70.826866 0.007047 500.129761
279 500.129700 0.165701 0.000119 0.011323 78.102165 0.011323 500.129761
[Rear_Toe2_02]
277 340.494507 0.000238 -0.000954 0.001174 -85.684387 0.001174 340.494507
278 340.494507 0.000238 -0.000954 0.001174 -85.788765 0.001174 340.494507
279 340.494507 0.000238 -0.000954 0.001175 -83.660210 0.001175 340.494507
[Rear_Toe2_03]
277 433.103577 0.000000 0.000238 -179.992065 79.323364 -179.995575 433.103546
278 433.103577 0.000000 0.000238 179.987549 79.182289 179.987549 433.103546
279 433.103577 0.000000 0.000238 179.975693 84.464195 179.975693 433.103546
[Rear_Toe3_02]
277 340.494141 -0.000358 -0.000477 0.001174 -85.603371 0.001174 340.494171
278 340.494141 -0.000358 -0.000477 0.001174 -85.687477 0.001174 340.494171
279 340.494141 -0.000358 -0.000477 0.001176 -82.661819 0.001176 340.494171
[Rear_Toe3_03]
277 433.103577 0.001431 -0.000238 -179.995377 79.670921 -179.991867 433.103546
278 433.103577 0.001431 -0.000238 -179.995499 79.458649 -179.991989 433.103546
279 433.103577 0.001431 -0.000238 -179.981781 86.702057 -179.978287 433.103546
[Back_Bone]
277 1312.175781 -701.934692 0.000954 1.121684 -0.047764 -86.668518 1488.125488
278 1312.175781 -701.934692 0.000954 1.133678 -0.054156 -86.235077 1488.125488
279 1312.175781 -701.934692 0.000954 1.145624 -0.060639 -85.801620 1488.125488
[Head]
277 1406.159424 809.709290 0.001431 2.765905 0.742460 3.005124 1622.625488
278 1406.159424 809.709290 0.001431 2.474748 1.050815 4.136265 1622.625488
279 1406.159424 809.709290 0.001431 2.238774 1.133051 4.937566 1622.625488
[Motor_Bone]
277 1158.364380 -417.834747 0.000477 1.115418 -1.114904 -107.103577 1231.419434
278 1158.364380 -417.834747 0.000477 -1.031348 -1.047913 -107.028976 1231.419434
279 1158.364380 -417.834747 0.000477 -2.188886 -0.972374 -106.959076 1231.419434
[Ping_Mechanism]
277 1277.141357 -460.762970 -48.126926 0.000103 -0.000053 82.120995 1358.568604
278 1284.644653 -462.863220 -46.128223 0.000103 -0.000053 82.120995 1366.265625
279 1292.147827 -464.963409 -44.129524 0.000103 -0.000053 82.120995 1373.966675
[BN_LookIK]
277 193.241119 1380.371704 -0.002861 0.000000 89.965736 -31.038179 1393.832153
278 193.241119 1380.371704 -0.002861 0.000000 89.965736 -31.038179 1393.832153
279 193.241119 1380.371704 -0.002861 0.000000 89.965736 -31.038179 1393.832153
[bottomMouth]
277 -435.092926 615.759399 -0.000954 -0.000022 0.000016 73.527184 753.966492
278 -435.092926 615.759399 -0.000954 -0.000022 0.000016 73.527184 753.966492
279 -435.092926 615.759399 -0.000954 -0.000022 0.000016 73.527184 753.966492
[L_Mouth01]
277 554.440979 7.658243 838.222046 150.204178 23.759130 109.605339 1005.027161
278 554.440979 7.658243 838.222046 150.204178 23.759130 109.605339 1005.027161
279 554.440979 7.658243 838.222046 150.204178 23.759130 109.605339 1005.027161
[L_mouthFront]
277 551.629089 934.514771 339.150421 0.000081 2.804060 79.119301 1136.941284
278 551.629089 934.514771 339.150421 0.000081 2.804060 79.119301 1136.941284
279 551.629089 934.514771 339.150421 0.000081 2.804060 79.119301 1136.941284
[mouthGun]
277 55.332661 1627.420898 0.000000 0.000023 0.000009 -11.038128 1628.361328
278 55.332661 1627.420898 0.000000 0.000023 0.000009 -11.038128 1628.361328
279 55.332661 1627.420898 0.000000 0.000023 0.000009 -11.038128 1628.361328
[R_Mouth01]
277 554.442383 7.659197 -838.223938 29.795891 -23.759109 109.605331 1005.029541
278 554.442383 7.659197 -838.223938 29.795891 -23.759109 109.605331 1005.029541
279 554.442383 7.659197 -838.223938 29.795891 -23.759109 109.605331 1005.029541
[R_mouthFront]
277 551.629089 934.514282 -339.151367 0.000029 -2.803930 79.119133 1136.941162
278 551.629089 934.514282 -339.151367 0.000029 -2.803930 79.119133 1136.941162
279 551.629089 934.514282 -339.151367 0.000029 -2.803930 79.119133 1136.941162
[TopMouth]
277 461.269867 -56.106091 -0.008583 -0.000059 -0.000268 92.025169 464.669525
278 461.269867 -56.106091 -0.008583 -0.000059 -0.000268 92.025169 464.669525
279 461.269867 -56.106091 -0.008583 -0.000059 -0.000268 92.025169 464.669525
[weapon_bone]
277 -987.239868 1448.372803 0.001431 0.000000 89.965736 -31.038221 1752.833740
278 -987.239868 1448.372803 0.001431 0.000000 89.965736 -31.038221 1752.833740
279 -987.239868 1448.372803 0.001431 0.000000 89.965736 -31.038221 1752.833740
